<svg width="24" height="24" viewBox="0 0 24 24" fill="none" xmlns="http://www.w3.org/2000/svg">
<g id="Layer_1" clip-path="url(#clip0_1493_23626)">
<path id="Vector" fill-rule="evenodd" clip-rule="evenodd" d="M12 1.23855C17.94 1.23855 22.7615 6.05371 22.7615 12C22.7615 17.9463 17.9463 22.7615 12 22.7615C6.05371 22.7615 1.23855 17.94 1.23855 12C1.23855 6.06003 6.05371 1.23855 12 1.23855ZM12 0C18.6288 0 24 5.37125 24 12C24 18.6288 18.6288 24 12 24C5.37125 24 0 18.6224 0 12C0 5.37757 5.37125 0 12 0Z" fill="#ED0000"/>
<path id="Vector_2" fill-rule="evenodd" clip-rule="evenodd" d="M11.2416 13.2512L8.36643 10.5593C8.12631 10.3191 7.78507 10.2496 7.48808 10.4392C7.12157 10.6793 7.03942 11.1849 7.37433 11.4945L11.9936 15.8231L16.6129 11.4945C16.7645 11.3492 16.8404 11.1533 16.8151 10.9447C16.7961 10.7678 16.7013 10.6098 16.5686 10.4961C16.2716 10.2433 15.8862 10.2939 15.6208 10.5529L12.7329 13.2575V5.08691H11.2479V13.2512H11.2416Z" fill="#ED0000"/>
<path id="Vector_3" fill-rule="evenodd" clip-rule="evenodd" d="M6.67955 17.0933H17.3209C17.3968 17.0933 17.46 17.1565 17.46 17.2323V18.3318C17.46 18.4076 17.3968 18.4708 17.3209 18.4708H6.67955C6.60372 18.4708 6.54053 18.4076 6.54053 18.3318V17.2323C6.54053 17.1565 6.60372 17.0933 6.67955 17.0933Z" fill="#ED0000"/>
</g>
<defs>
<clipPath id="clip0_1493_23626">
<rect width="24" height="24" fill="white"/>
</clipPath>
</defs>
</svg>
